# xmcd
#
# Track frame offsets: 
#        150
#        9106
#        24338
#        39456
#        54548
#        73493
#        89169
#        103412
#        115304
#        129691
#        145858
#        161184
#        177317
#        191405
#        206081
#        222738
#
# Disc length: 3133 seconds
#
# Revision: 1
# Processed by: cddbd v1.5.2PL0 Copyright (c) Steve Scherf et al.
# Submitted via: ExactAudioCopy v1.0b3
#
DISCID=fa0c3b10
DTITLE=香港群星 - 民歌喜好...都是那些好日子
DYEAR=2007
DGENRE=Pop
TTITLE0=張瑪莉 - 當你見到天上星星
TTITLE1=鄧惠欣 - 足印 (2007版)
TTITLE2=黃秀儀 - 夢到沙田
TTITLE3=蔡美璞 - 淺水灣的早晨
TTITLE4=何國禧 - My Way
TTITLE5=伍婉珊 - 時間 時間
TTITLE6=Boy and Medy - Crying In The Rain 
TTITLE7=露雲娜 - Jolene 
TTITLE8=陳柏旭 - 問我
TTITLE9=顧世德,陶贊新,黎沅君 - 黃大仙有個菩薩仔
TTITLE10=潘健康 - 尋夢
TTITLE11=Pollyanna Lee - One Day When We Were Young
TTITLE12=Cecilia Wong - Carry On Till Tomorrow 
TTITLE13=Boy and Medy - Anak 
TTITLE14=何晶晶 - 青葱歲月
TTITLE15=Sukie Tong (Featuring Sam Hui) - 美景在彼岸
EXTD=
EXTT0=
EXTT1=
EXTT2=
EXTT3=
EXTT4=
EXTT5=
EXTT6=
EXTT7=
EXTT8=
EXTT9=
EXTT10=
EXTT11=
EXTT12=
EXTT13=
EXTT14=
EXTT15=
PLAYORDER=
